<svg
  viewBox="0 0 135 160"
  xmlns="http://www.w3.org/2000/svg"
  stroke="#1A46FF"
  stroke-width="0.3px"
  fill="none"
>
  <path d="M34.85 71.27L61.92 107.14L11.73 112.59C10.2186 112.75 8.69066 112.552 7.26992 112.013C5.84918 111.473 4.57557 110.606 3.55216 109.482C2.52876 108.358 1.78434 107.009 1.37917 105.544C0.974006 104.08 0.919469 102.54 1.21999 101.05L20.03 8.75C20.4067 6.92997 21.2994 5.25685 22.6014 3.93054C23.9035 2.60424 25.5598 1.68082 27.3726 1.2706C29.1854 0.860382 31.0779 0.980704 32.8241 1.6172C34.5703 2.25371 36.0964 3.37947 37.22 4.86L73.08 52.39L41.53 55.82C39.8281 56.0025 38.2051 56.6335 36.8268 57.6485C35.4486 58.6635 34.3644 60.0262 33.6851 61.5973C33.0058 63.1684 32.7558 64.8917 32.9604 66.591C33.1651 68.2904 33.8171 69.9051 34.85 71.27V71.27Z" />
  <path d="M133.8 58.5L115 150.8C114.626 152.625 113.733 154.304 112.429 155.635C111.125 156.966 109.465 157.893 107.648 158.304C105.831 158.716 103.933 158.595 102.183 157.955C100.433 157.316 98.9042 156.186 97.78 154.7L61.92 107.14L93.48 103.72C95.1805 103.533 96.8011 102.898 98.1771 101.882C99.5531 100.865 100.635 99.5022 101.314 97.9317C101.992 96.3613 102.243 94.6391 102.04 92.9403C101.838 91.2416 101.189 89.6267 100.16 88.26L73.08 52.37L123.28 46.92C124.796 46.7562 126.33 46.953 127.756 47.4943C129.181 48.0356 130.459 48.9062 131.485 50.035C132.51 51.1638 133.254 52.519 133.657 53.99C134.059 55.4611 134.108 57.0064 133.8 58.5V58.5Z"/>
</svg>