			<svg
  className="mx-auto w-52"
  viewBox="0 0 521 158"
  fill="none"
  xmlns="http://www.w3.org/2000/svg"
>
  <path
    d="M191.32 81.37L184.51 116.07C184.481 116.547 184.357 117.014 184.144 117.442C183.931 117.871 183.635 118.252 183.272 118.564C182.909 118.875 182.488 119.111 182.032 119.256C181.576 119.401 181.096 119.454 180.62 119.41H169.49C169.042 119.471 168.585 119.433 168.153 119.298C167.721 119.163 167.324 118.935 166.99 118.63C166.769 118.246 166.63 117.82 166.582 117.379C166.534 116.939 166.577 116.493 166.71 116.07L173.61 80.92C174.05 78.7 173.92 77.18 173.22 76.36C172.52 75.55 171.22 75.14 169.22 75.14C167.491 75.0702 165.766 75.3386 164.14 75.93L156.14 116.07C156.111 116.547 155.987 117.014 155.774 117.442C155.561 117.871 155.265 118.252 154.902 118.564C154.539 118.875 154.118 119.111 153.662 119.256C153.206 119.401 152.726 119.454 152.25 119.41H141.13C140.682 119.472 140.225 119.434 139.793 119.299C139.361 119.164 138.964 118.936 138.63 118.63C138.409 118.246 138.27 117.82 138.222 117.379C138.174 116.939 138.217 116.493 138.35 116.07L147.25 70.58C147.394 69.5882 147.752 68.6396 148.3 67.8C149.028 66.9662 149.973 66.3501 151.03 66.02C156.823 63.5734 163.823 62.35 172.03 62.35C187.41 62.35 193.84 68.69 191.32 81.37ZM244.68 78.92L244.46 80.03C243.2 86.2634 241.05 90.5667 238.01 92.94C234.97 95.3133 230.597 96.5 224.89 96.5C220.73 96.6227 216.573 96.165 212.54 95.14L211.43 101.14C210.91 103.66 211.04 105.347 211.82 106.2C212.59 107.05 214.32 107.48 216.99 107.48C222.92 107.529 228.83 106.779 234.56 105.25C234.982 105.077 235.443 105.022 235.894 105.091C236.345 105.16 236.768 105.349 237.12 105.64C237.64 106.2 237.71 107.11 237.34 108.37L235.79 113.71C235.5 114.862 234.882 115.904 234.01 116.71C232.994 117.444 231.866 118.008 230.67 118.38C226.523 119.713 221.147 120.38 214.54 120.38H213.22C198.007 120.38 191.627 114.003 194.08 101.25L198.08 81.01C199.413 73.81 202.23 68.84 206.53 66.1C210.83 63.36 216.69 61.99 224.11 61.99H225C232.56 61.99 238.027 63.3034 241.4 65.93C244.773 68.5567 245.867 72.8867 244.68 78.92V78.92ZM227.5 75.14C226.793 74.4 225.403 74.03 223.33 74.03H222.77C218.69 74.03 216.28 75.9933 215.54 79.92L214.65 84.37C215.99 85.04 218.28 85.37 221.55 85.37C224.82 85.37 227.03 83.56 227.78 79.92L227.89 79.37C228.33 77.29 228.2 75.88 227.5 75.14ZM326.22 64.39C325.504 63.839 324.623 63.5465 323.72 63.56L313.41 62.78C311.343 62.56 309.94 63.6734 309.2 66.12L303.87 82.5L297.22 103.39H296.78V66.69C296.879 65.8176 296.64 64.9404 296.11 64.24C295.41 63.7166 294.539 63.4773 293.67 63.57H283.99C283.052 63.5055 282.117 63.7401 281.32 64.24C280.582 64.8958 280.042 65.7442 279.76 66.69L273.36 82.82C268.52 94.98 265.797 101.837 265.19 103.39H264.75C265.337 97.09 265.89 90.12 266.41 82.48L267.49 66.14C267.602 65.6797 267.62 65.2015 267.542 64.7341C267.465 64.2667 267.294 63.8198 267.04 63.42C266.701 63.1447 266.307 62.9465 265.883 62.8394C265.46 62.7324 265.019 62.7189 264.59 62.8L253.92 63.69C252.911 63.7313 251.932 64.0384 251.08 64.58C250.768 64.9006 250.531 65.287 250.387 65.711C250.244 66.1349 250.197 66.5856 250.25 67.03L249.8 116.08C249.684 116.541 249.689 117.023 249.815 117.481C249.942 117.939 250.184 118.356 250.519 118.693C250.855 119.029 251.271 119.273 251.729 119.4C252.186 119.528 252.669 119.535 253.13 119.42H267.85C268.804 119.482 269.754 119.248 270.57 118.75C271.371 118.066 271.946 117.157 272.22 116.14L278.93 99.24C281.183 93.3867 283.353 87.01 285.44 80.11H285.89C285.222 86.4213 284.888 92.7635 284.89 99.11V116.11C284.785 117.016 285.02 117.928 285.55 118.67C286.289 119.207 287.203 119.446 288.11 119.34H303.11C304.124 119.386 305.123 119.077 305.934 118.465C306.744 117.853 307.316 116.978 307.55 115.99L326.12 66.83C326.52 65.64 326.57 64.8 326.22 64.39ZM373.98 71.14C374.804 74.3435 374.842 77.6988 374.09 80.92L370.01 101.84C368.677 108.887 365.86 113.8 361.56 116.58C357.26 119.36 351.63 120.753 344.67 120.76H343.78C340.705 120.798 337.634 120.537 334.61 119.98C332.17 119.507 329.833 118.603 327.71 117.31C325.668 116.036 324.195 114.023 323.6 111.69C322.891 108.632 322.911 105.449 323.66 102.4L335.22 43.14C335.311 42.1272 335.736 41.1736 336.43 40.43C337.228 39.8331 338.185 39.4852 339.18 39.43L350.18 38.54C351.43 38.4 352.25 38.54 352.66 39.04C353.07 39.54 353.12 40.43 352.82 41.77L350.46 53.89L348.55 63.72C351.277 62.6089 354.196 62.0449 357.14 62.06H357.47C359.621 62.0464 361.766 62.2881 363.86 62.78C365.962 63.312 367.967 64.1726 369.8 65.33C371.867 66.6797 373.357 68.7511 373.98 71.14V71.14ZM356.22 75.92C355.5 75.18 354.22 74.81 352.31 74.81H352.08C350.509 74.7258 348.95 75.1123 347.6 75.92C346.976 76.4302 346.459 77.0585 346.078 77.7689C345.697 78.4793 345.46 79.2579 345.38 80.06L341.17 101.68C340.8 103.68 340.97 105.08 341.69 105.83C342.41 106.58 343.69 106.95 345.59 106.95H345.82C347.364 107.017 348.893 106.631 350.22 105.84C350.842 105.333 351.357 104.708 351.736 104.001C352.115 103.294 352.351 102.518 352.43 101.72L356.65 80.03C357.03 78.03 356.887 76.66 356.22 75.92ZM427.04 63.8L416.22 62.91C414.1 62.69 412.787 63.8033 412.28 66.25L405.82 100.82C405.22 104.02 403.183 105.62 399.71 105.62H399.37C395.83 105.62 394.37 103.99 395.06 100.73L401.74 66.25C402.25 63.81 401.36 62.69 399.06 62.92L387.78 63.81C386.78 63.8568 385.814 64.1824 384.99 64.75C384.296 65.4065 383.859 66.2898 383.76 67.24L377.32 100.5C375.907 107.467 376.63 112.36 379.49 115.18C382.35 118 386.737 119.41 392.65 119.41H393.1C397.253 119.41 400.437 118.863 402.65 117.77L401.41 124.44L401.12 125.97C400.68 128.123 399.957 129.59 398.95 130.37C397.729 131.212 396.261 131.621 394.78 131.53C392.44 131.517 390.103 131.37 387.78 131.09C387.409 130.993 387.02 130.982 386.644 131.058C386.268 131.134 385.914 131.296 385.61 131.53C384.973 132.322 384.621 133.304 384.61 134.32L384.17 140.77C384.051 141.536 384.127 142.32 384.39 143.05C384.801 143.571 385.401 143.909 386.06 143.99C387.693 144.437 390.807 144.66 395.4 144.66C401.4 144.66 406.343 143.327 410.23 140.66C414.117 137.993 416.78 133.12 418.22 126.04L429.68 67.04C429.815 66.6465 429.86 66.228 429.814 65.8147C429.767 65.4014 429.629 65.0036 429.41 64.65C428.726 64.1027 427.876 63.8031 427 63.8H427.04ZM456.78 75.7H466.63C467.609 75.7939 468.591 75.5581 469.42 75.03C470.08 74.2788 470.504 73.3503 470.64 72.36L471.2 66.69C471.341 65.7966 471.141 64.8831 470.64 64.13C470.291 63.8284 469.884 63.6032 469.443 63.4689C469.002 63.3345 468.538 63.294 468.08 63.35H459.18L461.52 51.35C461.82 50.03 461.76 49.17 461.36 48.77C460.639 48.2711 459.76 48.054 458.89 48.16L448.01 49.05C447.002 49.0179 446.014 49.332 445.21 49.94C444.541 50.6909 444.1 51.6172 443.94 52.61L441.85 63.4H436.52C435.554 63.3136 434.588 63.5683 433.79 64.12C433.23 64.61 431.51 72.41 431.51 72.41C431.347 72.8227 431.278 73.2664 431.308 73.7091C431.337 74.1518 431.464 74.5824 431.68 74.97C432.014 75.2757 432.411 75.5041 432.843 75.6389C433.275 75.7738 433.732 75.8117 434.18 75.75H439.41L434.22 102.39C432.887 109.443 433.377 114.153 435.69 116.52C438.003 118.887 442.513 120.073 449.22 120.08C452.238 120.115 455.253 119.854 458.22 119.3C459.154 119.09 460.012 118.626 460.698 117.959C461.385 117.292 461.873 116.448 462.11 115.52L464.34 108.18C464.63 107.18 464.56 106.55 464.11 106.18C463.801 105.98 463.454 105.847 463.09 105.79C462.727 105.733 462.355 105.754 462 105.85C459.71 106.131 457.407 106.281 455.1 106.3C453.47 106.3 452.41 106.07 451.93 105.62C451.45 105.17 451.36 104.05 451.66 102.25L456.78 75.7ZM519.91 78.92L519.68 80.03C518.42 86.2634 516.27 90.5667 513.23 92.94C510.19 95.3133 505.817 96.5 500.11 96.5C495.937 96.6258 491.767 96.1681 487.72 95.14L486.61 101.14C486.09 103.66 486.22 105.347 487 106.2C487.78 107.053 489.503 107.48 492.17 107.48C498.1 107.529 504.01 106.779 509.74 105.25C510.162 105.077 510.623 105.022 511.074 105.091C511.525 105.16 511.949 105.349 512.3 105.64C512.82 106.2 512.9 107.11 512.52 108.37L510.97 113.71C510.68 114.862 510.062 115.904 509.19 116.71C508.176 117.446 507.047 118.01 505.85 118.38C501.697 119.713 496.32 120.38 489.72 120.38H488.39C473.19 120.38 466.813 114.003 469.26 101.25L473.26 81.01C474.593 73.81 477.41 68.84 481.71 66.1C486.01 63.36 491.87 61.99 499.29 61.99H500.22C507.78 61.99 513.247 63.3034 516.62 65.93C519.993 68.5567 521.077 72.8867 519.87 78.92H519.91ZM502.68 75.14C501.98 74.4 500.58 74.03 498.51 74.03H497.95C493.87 74.03 491.46 75.9933 490.72 79.92L489.83 84.37C491.163 85.0367 493.463 85.37 496.73 85.37C500.14 85.37 502.22 83.56 502.96 79.92L503.07 79.37C503.52 77.29 503.38 75.88 502.68 75.14Z"
    fill="white"
  />
  <path
    d="M33.85 70.27L60.92 106.14L10.73 111.59C9.21857 111.75 7.69065 111.552 6.26991 111.013C4.84917 110.473 3.57555 109.606 2.55215 108.482C1.52874 107.358 0.784327 106.009 0.37916 104.544C-0.0260077 103.08 -0.0805442 101.54 0.21998 100.05L19.03 7.75C19.4067 5.92997 20.2994 4.25685 21.6014 2.93054C22.9035 1.60424 24.5598 0.680821 26.3726 0.270601C28.1854 -0.139618 30.0779 -0.0192961 31.8241 0.617205C33.5703 1.25371 35.0964 2.37947 36.22 3.86L72.08 51.39L40.53 54.82C38.8281 55.0025 37.2051 55.6335 35.8268 56.6485C34.4486 57.6635 33.3644 59.0262 32.6851 60.5973C32.0058 62.1684 31.7557 63.8917 31.9604 65.591C32.1651 67.2904 32.8171 68.9051 33.85 70.27Z"
    fill="#00FFFF"
  />
  <path
    d="M132.8 57.5L114 149.8C113.626 151.625 112.733 153.304 111.429 154.635C110.125 155.966 108.465 156.893 106.648 157.304C104.831 157.716 102.933 157.595 101.183 156.955C99.4329 156.316 97.9042 155.186 96.78 153.7L60.92 106.14L92.48 102.72C94.1805 102.533 95.8011 101.898 97.1771 100.882C98.553 99.8651 99.6353 98.5022 100.314 96.9317C100.992 95.3613 101.243 93.6391 101.04 91.9403C100.838 90.2416 100.189 88.6267 99.16 87.26L72.08 51.37L122.28 45.92C123.796 45.7562 125.33 45.953 126.756 46.4943C128.181 47.0356 129.459 47.9062 130.485 49.035C131.51 50.1638 132.254 51.519 132.657 52.99C133.059 54.4611 133.108 56.0064 132.8 57.5V57.5Z"
    fill="#1A46FF"
  />
</svg>